<?xml version="1.0" standalone="no"?>
<!DOCTYPE svg PUBLIC "-//W3C//DTD SVG 20010904//EN"
 "http://www.w3.org/TR/2001/REC-SVG-20010904/DTD/svg10.dtd">
<svg version="1.0" xmlns="http://www.w3.org/2000/svg"
 width="800.000000pt" height="800.000000pt" viewBox="0 0 800.000000 800.000000"
 preserveAspectRatio="xMidYMid meet">
<metadata>
Created by potrace 1.11, written by Peter Selinger 2001-2013
</metadata>
<g transform="translate(0.000000,800.000000) scale(0.100000,-0.100000)"
fill="#000000" stroke="none">
<path d="M6141 6488 c-199 -56 -267 -323 -119 -464 68 -64 93 -76 177 -81 66
-5 83 -2 131 19 100 45 159 127 168 234 12 160 -104 293 -263 299 -33 2 -75
-1 -94 -7z m186 -78 c121 -69 149 -236 56 -335 -36 -40 -70 -60 -113 -71 -142
-33 -284 92 -267 236 7 58 24 94 67 137 61 62 179 78 257 33z"/>
<path d="M6125 6235 c0 -131 6 -148 44 -138 14 3 18 15 17 51 -1 61 18 62 50
2 24 -45 59 -66 85 -50 10 7 7 18 -14 49 -29 43 -34 61 -16 61 5 0 17 16 25
36 31 75 -13 114 -130 114 l-61 0 0 -125z m126 65 c31 -17 8 -49 -33 -47 -32
2 -34 5 -29 47 1 13 37 13 62 0z"/>
<path d="M3610 6213 c-14 -2 -74 -4 -134 -5 -93 -3 -109 -5 -112 -20 -1 -9 -5
-56 -9 -105 -3 -48 -8 -99 -10 -113 -2 -14 -6 -56 -10 -95 -8 -100 -15 -175
-20 -215 -4 -29 -16 -164 -17 -180 -2 -28 7 -29 264 -27 247 2 261 3 264 21 1
10 5 51 9 90 7 78 11 118 13 126 2 6 170 4 288 -4 327 -22 665 -151 954 -365
81 -60 252 -225 317 -306 218 -271 365 -628 400 -970 12 -123 6 -354 -12 -458
-3 -15 -7 -37 -9 -49 -38 -219 -139 -470 -264 -663 -306 -471 -802 -775 -1355
-832 -40 -4 -479 -7 -977 -7 l-905 -1 1 35 c1 38 13 159 19 200 2 14 6 52 10
85 3 33 10 96 15 140 5 44 12 109 15 145 4 36 8 76 10 90 2 14 6 50 9 80 13
128 17 166 21 190 2 14 6 54 10 90 3 36 8 81 10 100 2 19 7 60 10 90 13 132
17 166 20 190 2 14 11 93 20 175 8 83 18 168 20 190 3 22 8 69 11 105 4 36 7
69 8 74 1 10 -925 13 -942 2 -6 -3 -11 -14 -10 -24 0 -16 -8 -100 -17 -172 -2
-19 -7 -62 -10 -95 -4 -33 -11 -89 -16 -125 -16 -117 -39 -105 200 -104 l210
1 -4 -41 c-3 -23 -7 -62 -10 -88 -3 -27 -7 -72 -10 -100 -3 -29 -8 -69 -10
-88 -7 -52 -14 -118 -20 -180 -3 -30 -7 -71 -10 -90 -2 -19 -6 -57 -9 -85 -12
-110 -16 -154 -25 -235 -6 -47 -13 -114 -16 -150 -3 -36 -8 -76 -10 -90 -2
-14 -7 -54 -10 -90 -4 -36 -9 -83 -11 -105 -3 -22 -7 -56 -9 -76 -6 -70 -16
-164 -20 -189 -3 -22 -8 -62 -20 -180 -1 -14 -5 -56 -9 -95 -4 -38 -9 -78 -12
-88 -5 -17 48 -18 1263 -14 697 2 1286 7 1308 11 22 4 54 9 70 11 149 18 433
98 575 162 450 203 792 492 1052 888 193 294 331 680 365 1019 16 150 8 505
-12 606 -3 14 -8 44 -11 68 -3 23 -18 93 -33 155 -80 322 -245 652 -456 912
-367 451 -895 759 -1450 844 -38 6 -88 14 -110 17 -37 7 -587 12 -645 7z"/>
<path d="M1661 4995 c-5 -5 -8 -17 -8 -25 -1 -19 -13 -127 -18 -160 -3 -14 -7
-52 -10 -85 -4 -33 -8 -71 -10 -85 -11 -64 -15 -160 -8 -161 4 0 564 -2 1243
-3 1374 -3 1280 2 1419 -71 307 -161 417 -543 245 -848 -65 -116 -198 -225
-338 -275 -68 -24 -83 -25 -335 -30 l-263 -4 7 69 c4 37 9 86 11 108 2 22 6
56 9 75 2 19 7 58 10 85 12 113 14 133 20 190 3 33 8 74 10 90 2 17 6 59 10
95 l7 66 -260 -1 c-143 0 -263 -2 -265 -5 -3 -3 -8 -34 -12 -70 -3 -36 -8 -78
-10 -95 -6 -45 -14 -113 -20 -175 -11 -116 -16 -156 -20 -180 -2 -14 -7 -56
-10 -95 -3 -38 -8 -81 -10 -95 -4 -24 -14 -115 -20 -175 -7 -80 -17 -173 -20
-195 -2 -14 -6 -54 -10 -90 -4 -36 -8 -77 -11 -91 -2 -16 1 -29 9 -31 6 -2
255 -4 552 -3 452 1 572 5 635 20 3 1 25 5 50 9 25 5 77 20 115 33 705 251
987 1077 580 1703 -179 276 -504 475 -825 506 -113 11 -2441 10 -2449 -1z"/>
</g>
</svg>
